HIERARCHY
ROOT hip
{
	OFFSET 0.000000 0.000000 0.000000 
	CHANNELS 6 Xposition Yposition Zposition Xrotation Zrotation Yrotation
	JOINT abdomen
	{
		OFFSET 0.000000 3.402643 0.000000 
		CHANNELS 3 Xrotation Zrotation Yrotation
		JOINT chest
		{
			OFFSET 0.000000 8.438565 -0.680529 
			CHANNELS 3 Xrotation Zrotation Yrotation
			JOINT neck
			{
				OFFSET 0.000000 10.207942 -0.272212 
				CHANNELS 3 Xrotation Zrotation Yrotation
				JOINT head
				{
					OFFSET 0.000000 3.130431 0.000000 
					CHANNELS 3 Xrotation Zrotation Yrotation
					End Site
					{
						OFFSET 0.000000 3.130435 0.000000 
					}
				}
			}
			JOINT lCollar
			{
				OFFSET 3.470700 6.669187 -0.816635 
				CHANNELS 3 Yrotation Zrotation Xrotation
				JOINT lShldr
				{
					OFFSET 3.198488 0.000000 0.000000 
					CHANNELS 3 Zrotation Yrotation Xrotation
					JOINT lForeArm
					{
						OFFSET 10.139888 0.000000 0.000000 
						CHANNELS 3 Yrotation Zrotation Xrotation
						JOINT lHand
						{
							OFFSET 8.370511 0.000000 0.000000 
							CHANNELS 3 Zrotation Yrotation Xrotation
							End Site
							{
								OFFSET 4.083176 0.000000 0.000000 
							}
						}
					}
				}
			}
			JOINT rCollar
			{
				OFFSET -3.470700 6.669187 -0.816635 
				CHANNELS 3 Yrotation Zrotation Xrotation
				JOINT rShldr
				{
					OFFSET -3.198488 0.000000 0.000000 
					CHANNELS 3 Zrotation Yrotation Xrotation
					JOINT rForeArm
					{
						OFFSET -10.139888 0.000000 0.000000 
						CHANNELS 3 Yrotation Zrotation Xrotation
						JOINT rHand
						{
							OFFSET -8.370511 0.000000 0.000000 
							CHANNELS 3 Zrotation Yrotation Xrotation
							End Site
							{
								OFFSET -4.083176 0.000000 0.000000 
							}
						}
					}
				}
			}
		}
	}
	JOINT lThigh
	{
		OFFSET 5.308129 -1.633274 1.361059 
		CHANNELS 3 Xrotation Zrotation Yrotation
		JOINT lShin
		{
			OFFSET -2.041588 -20.007561 0.000000 
			CHANNELS 3 Xrotation Zrotation Yrotation
			JOINT lFoot
			{
				OFFSET 0.000000 -19.190928 -1.224953 
				CHANNELS 3 Xrotation Yrotation Zrotation
				End Site
				{
					OFFSET 0.000000 -2.449906 4.627600 
				}
			}
		}
	}
	JOINT rThigh
	{
		OFFSET -5.308129 -1.633274 1.361059 
		CHANNELS 3 Xrotation Zrotation Yrotation
		JOINT rShin
		{
			OFFSET 2.041588 -20.007561 0.000000 
			CHANNELS 3 Xrotation Zrotation Yrotation
			JOINT rFoot
			{
				OFFSET 0.000000 -19.190928 -1.224953 
				CHANNELS 3 Xrotation Yrotation Zrotation
				End Site
				{
					OFFSET 0.000000 -2.449906 4.627600 
				}
			}
		}
	}
}
MOTION
Frames: 11
Frame Time: 0.033333
40.573463 51.141071 86.669418 -174.606491 -176.343811 -6.752526 37.140755 0.506083 -2.470845 3.359797 3.477438 -9.248672 -11.932199 3.326468 -0.730939 0.000000 0.000000 0.000000 -4.581971 -2.341600 -0.138202 -62.637001 16.310150 -23.720537 -77.661789 -5.000000 9.633224 -20.713686 -22.084887 13.352286 -1.150100 -5.439405 0.284927 19.148178 5.412428 -7.189613 128.943634 -5.000000 23.445381 22.459324 3.742613 -17.636522 20.350254 6.064549 8.072262 97.216469 -1.160478 1.040072 31.490601 2.067469 -14.498486 -22.662926 -3.252513 15.127528 23.129230 9.997504 6.100860 8.278038 -14.226223 0.896428 
40.586182 51.143780 82.077614 4.949142 -1.759411 171.851532 37.547794 2.614510 -0.423043 2.409525 2.931408 -6.636291 -12.041566 2.116359 -0.438934 0.000000 0.000000 0.000000 -3.872277 -3.600584 -0.193415 -63.492264 20.246300 -26.993681 -56.917126 -5.000000 26.542229 -13.139845 -25.081213 11.529278 -1.199036 -7.126581 0.373395 16.641407 12.504346 -7.577577 132.926987 -5.000000 29.528358 21.215693 3.392576 -18.229710 11.218391 10.399510 6.779481 116.346794 -2.784028 3.599901 26.242235 3.337195 -10.128260 -20.440842 -1.418019 15.242438 29.299810 9.992108 8.520626 1.394560 -15.265058 -3.104848 
40.658218 51.350563 77.596817 4.093538 0.548315 170.077744 37.622334 4.133930 2.468795 2.544156 2.272629 -4.455163 -12.052820 1.008006 -0.192003 0.000000 0.000000 0.000000 -3.194686 -2.646034 -0.124622 -64.324478 24.386980 -29.400150 -44.985367 -5.000000 37.111282 -4.800556 -27.313560 6.644913 -0.938860 -10.909987 0.543381 16.837490 17.855452 -8.988884 135.886551 -5.000000 33.458347 20.142281 3.725958 -19.494871 -1.493892 15.215494 5.304075 131.238495 -1.715348 2.270242 23.512489 2.753896 -7.835177 -16.168169 0.486962 15.925843 30.927408 9.993155 9.228190 -4.104684 -14.200305 -4.785728 
40.769802 51.693413 73.189987 2.917739 3.095278 168.019485 37.538643 5.274827 5.919694 3.405480 1.503326 -2.568836 -11.992191 -0.017851 0.012578 0.000000 0.000000 0.000000 -2.547431 -0.207773 0.001408 -65.174500 28.639025 -31.258026 -38.162258 -5.000000 44.005432 4.174844 -28.025629 -0.298589 -0.445797 -16.088476 0.827429 18.812771 22.115084 -10.861099 137.786270 -5.000000 35.590664 19.161800 4.469696 -21.232588 -16.918770 20.052149 2.878403 143.141525 2.027366 -0.768043 22.529669 1.229936 -6.943213 -10.490385 2.348060 17.116541 29.460741 9.992991 8.696267 -8.589272 -11.946469 -4.733165 
40.893532 52.260803 68.782707 1.883367 4.107325 165.695007 37.395782 4.625342 8.629272 4.164679 0.683574 -0.810516 -11.837429 -0.784464 0.168064 0.000000 0.000000 0.000000 -2.090051 2.075129 0.099803 -65.271065 32.739574 -32.680733 -32.093719 -5.000000 45.000000 11.547955 -27.510641 -5.752855 -0.106839 -20.359724 1.104129 19.798664 25.996389 -12.884902 138.769073 -5.000000 36.540524 18.585474 4.934424 -22.356470 -32.434830 23.130329 -0.311899 144.984711 5.499310 -2.627007 21.390236 0.188420 -6.321369 -4.537757 2.531482 18.534550 26.631254 9.991713 7.581216 -11.650234 -9.832022 -3.877711 
41.065853 53.726364 64.373550 1.879956 -0.884982 162.536835 36.633900 -3.063052 8.401801 4.626908 -0.244132 0.468746 -11.270189 -0.536338 0.110775 0.000000 0.000000 0.000000 -2.406464 3.684359 0.182890 -61.503922 36.254108 -31.547501 -28.418171 -5.000000 45.000000 12.461226 -27.744106 -5.422142 -0.543466 -20.964272 1.138893 17.029165 28.064341 -16.049400 136.148285 -5.000000 32.741890 19.700584 4.390358 -20.965715 -45.652176 21.893723 -1.251774 144.975479 5.816049 -2.788679 19.558664 1.078668 -6.664097 2.428829 -3.510399 19.783943 18.415825 9.984460 4.505306 -9.359452 -8.759642 -1.006746 
41.238174 55.191921 59.964390 2.160797 -5.879139 159.358444 35.782864 -10.742988 8.300019 5.079023 -1.181299 1.757923 -10.703284 -0.288211 0.053482 0.000000 0.000000 0.000000 -2.725281 5.303334 0.267239 -57.465748 39.697315 -30.055510 -23.730185 -5.000000 45.000000 13.367063 -27.981255 -5.081096 -0.979422 -21.578564 1.174226 14.071797 29.995090 -19.388504 133.768280 -5.000000 29.194777 20.806889 3.800009 -19.601965 -58.746220 20.477520 -1.868330 144.987534 6.128667 -2.969712 17.719339 2.005394 -7.005457 9.352703 -9.682240 20.327589 10.387556 7.127276 1.857167 -7.117860 -7.755341 1.957945 
41.355736 57.068409 55.991070 2.148052 -10.756313 160.184479 37.165863 -15.618457 4.229538 4.979614 -2.361962 2.501593 -11.465484 -0.526682 0.109314 0.000000 0.000000 0.000000 -3.393565 6.142162 0.310539 -54.797527 42.540386 -29.757072 -21.960230 -5.000000 45.000000 13.408463 -27.470205 -4.770366 -1.993063 -22.105091 1.205085 9.173335 30.955790 -24.356100 130.253418 -5.000000 24.796516 21.805105 3.230753 -19.513241 -68.221062 17.294601 0.156738 144.971634 5.664663 -3.602430 13.598906 4.929643 -4.241944 14.940115 -14.274777 10.735864 4.176659 4.957202 0.747246 5.776233 -8.229835 6.319900 
41.459610 59.047619 52.126705 1.882991 -15.601085 162.051422 39.712967 -19.602737 -1.077336 4.742770 -3.610178 3.139277 -12.560712 -0.887754 0.203440 0.000000 0.000000 0.000000 -4.159024 6.795705 0.344231 -52.432236 45.245758 -29.681820 -20.844234 -5.000000 45.000000 13.233200 -26.779055 -4.470868 -3.162823 -22.621866 1.239261 3.755014 31.300858 -29.774605 126.699478 -5.000000 20.540705 22.778452 2.673708 -19.754385 -76.844299 14.062323 3.221452 136.756561 4.878764 -4.216428 8.701505 8.083346 -0.397065 21.010218 -17.426239 -1.787510 -1.618347 3.053540 0.143211 21.312746 -7.662701 11.188582 
41.569584 60.852325 48.226700 1.340889 -18.483486 164.388596 42.576874 -21.116148 -5.466321 4.540023 -4.575000 3.582762 -13.198159 -1.316412 0.307771 0.000000 0.000000 0.000000 -4.747912 7.077817 0.369666 -51.212059 47.654533 -30.172281 -21.406658 -5.000000 45.000000 13.165568 -26.271997 -3.860605 -4.255321 -23.714617 1.316316 -1.784842 31.686665 -36.075718 122.342171 -5.000000 15.898317 24.274254 1.649795 -19.294592 -83.738068 11.610901 4.424992 126.941986 3.978492 -4.860543 6.474649 9.266665 0.529644 26.166821 -17.918068 -12.711347 -2.995013 1.646525 -0.128090 31.685274 -5.284171 13.315023 
41.688702 62.395256 44.273216 0.591182 -18.411135 167.338699 45.006699 -19.200748 -7.989196 4.417567 -5.101296 3.721536 -13.163400 -1.862392 0.419932 0.000000 0.000000 0.000000 -5.078335 6.824255 0.356569 -51.935974 49.621994 -31.794096 -25.171457 -5.000000 45.000000 13.253868 -26.071194 -2.801488 -5.253663 -25.675404 1.451172 -7.541959 32.205921 -43.743195 116.815811 -5.000000 10.894991 26.479015 -0.154154 -17.828196 -87.885925 9.667537 2.409291 114.971001 2.837815 -5.517801 8.439118 7.888870 -3.214324 28.891294 -15.809734 -20.504906 2.201812 0.990896 -0.032209 34.704388 -1.892313 11.626315 
